<?xml version="1.0" standalone="no"?>
<!DOCTYPE svg PUBLIC "-//W3C//DTD SVG 20010904//EN"
 "http://www.w3.org/TR/2001/REC-SVG-20010904/DTD/svg10.dtd">
<svg version="1.0" xmlns="http://www.w3.org/2000/svg"
 width="512.000000pt" height="512.000000pt" viewBox="0 0 512.000000 512.000000"
 preserveAspectRatio="xMidYMid meet">
<metadata>
Created by potrace 1.16, written by Peter Selinger 2001-2019
</metadata>
<g transform="translate(0.000000,512.000000) scale(0.100000,-0.100000)"
fill="#E9505D" stroke="none">
<path d="M2281 5025 c-207 -47 -359 -132 -503 -283 -114 -120 -204 -286 -239
-444 -12 -55 -14 -58 -43 -58 -41 0 -91 -32 -116 -72 -17 -29 -20 -51 -20
-168 0 -117 3 -139 20 -168 24 -39 75 -72 113 -72 l27 0 0 -235 c0 -213 2
-239 21 -290 41 -110 161 -194 277 -195 46 -1 48 -2 82 -57 40 -64 108 -122
174 -149 49 -20 52 -28 32 -83 -11 -31 -18 -35 -127 -71 -113 -37 -265 -107
-341 -157 -21 -14 -40 -24 -42 -22 -2 2 -42 124 -89 271 -48 147 -96 281 -108
298 -29 39 -83 76 -150 102 -74 29 -263 36 -369 14 -102 -21 -243 -92 -307
-155 -72 -71 -96 -127 -91 -216 l4 -70 293 -439 294 -440 -37 -110 c-56 -170
-67 -235 -73 -421 -5 -154 -3 -179 17 -260 56 -227 195 -422 384 -540 l76 -47
0 -79 c0 -140 60 -243 175 -299 l50 -25 928 -3 927 -2 0 516 0 516 61 -60 c69
-69 180 -131 279 -157 100 -26 282 -17 374 18 176 69 302 194 374 375 l27 67
3 985 c2 701 0 996 -8 1023 -14 49 -74 115 -125 138 -59 27 -312 27 -370 0
-76 -35 -135 -120 -135 -195 0 -26 -5 -36 -21 -41 -35 -11 -101 -77 -120 -120
-14 -31 -19 -65 -19 -153 0 -133 11 -164 96 -253 l54 -56 -40 -339 c-22 -186
-41 -345 -42 -353 -2 -7 -27 22 -57 65 -30 44 -113 138 -185 210 -202 200
-395 319 -666 408 -128 42 -135 46 -146 78 -20 54 -17 62 32 82 66 27 134 85
174 148 l35 55 60 5 c116 8 225 87 264 194 19 50 21 77 21 289 l0 235 28 0
c37 0 88 33 112 72 17 29 20 51 20 168 0 117 -3 139 -20 168 -25 40 -75 72
-115 72 -29 0 -31 2 -52 85 -25 95 -84 228 -134 302 -47 69 -164 188 -234 238
-83 59 -188 110 -292 141 -76 23 -110 27 -248 30 -114 3 -178 -1 -224 -11z
m250 -155 l29 0 0 -315 0 -315 -80 0 -80 0 0 314 0 315 38 4 c20 2 43 2 50 0
8 -2 27 -3 43 -3z m-291 -330 l0 -300 -269 0 -269 0 13 48 c68 253 266 462
523 551 1 1 2 -134 2 -299z m674 203 c160 -103 281 -270 331 -455 l13 -48
-269 0 -269 0 0 299 0 300 62 -26 c35 -14 94 -45 132 -70z m526 -743 l0 -80
-960 0 -960 0 0 80 0 80 960 0 960 0 0 -80z m-482 -542 c-3 -343 -6 -358 -85
-429 -67 -61 -86 -64 -393 -64 -307 0 -326 3 -393 64 -79 71 -82 86 -85 429
l-4 302 482 0 482 0 -4 -302z m-1118 -98 c0 -149 0 -150 -22 -150 -64 0 -128
76 -128 150 0 74 64 150 128 150 22 0 22 -1 22 -150z m1358 130 c96 -59 96
-201 0 -260 -18 -11 -43 -20 -55 -20 -23 0 -23 1 -23 150 0 149 0 150 23 150
12 0 37 -9 55 -20z m1226 -144 c51 -21 56 -49 56 -312 l0 -234 -178 0 -178 0
-57 58 c-51 51 -58 64 -63 109 -12 101 29 153 121 153 l35 0 0 74 c0 95 14
134 54 152 41 17 168 18 210 0z m-3245 -332 c101 -32 119 -91 47 -159 -80 -77
-212 -125 -346 -126 -188 -2 -279 74 -199 165 98 113 340 171 498 120z m1500
-284 c13 -41 19 -76 14 -83 -14 -25 -208 -266 -213 -266 -5 0 -199 241 -213
266 -5 7 1 42 14 83 l23 70 176 0 176 0 23 -70z m-1260 -245 l71 -221 -23 -44
c-21 -42 -22 -61 -27 -313 l-5 -268 -308 458 -308 458 103 6 c57 3 130 14 163
23 71 21 205 89 231 117 10 11 21 16 25 12 4 -5 39 -107 78 -228z m3061 -392
c0 -302 -4 -585 -10 -631 -44 -387 -502 -553 -774 -280 -47 48 -76 90 -119
175 l-57 111 0 146 0 146 -80 0 -80 0 0 -760 0 -760 -240 0 -240 0 1 83 0 82
47 30 c25 17 60 49 77 73 30 43 30 45 33 194 3 122 0 160 -13 194 -16 43 -76
106 -121 126 l-24 11 0 749 c0 411 4 748 8 748 18 0 152 -49 225 -83 304 -140
553 -377 708 -671 l51 -96 -18 -155 c-10 -85 -16 -157 -13 -159 2 -2 40 -7 84
-11 l80 -7 73 633 c41 349 75 640 78 647 2 9 44 12 164 12 l160 0 0 -547z
m-2296 380 l55 -68 -115 -3 c-63 -1 -167 -1 -232 0 l-117 3 80 39 c83 40 227
94 257 95 9 1 41 -29 72 -66z m536 -697 l0 -623 -47 23 c-25 13 -61 24 -79 24
l-33 0 -3 498 -3 497 80 102 c44 56 81 102 83 102 1 1 2 -280 2 -623z m-770
460 c0 -2 -7 -23 -15 -46 -8 -23 -15 -76 -15 -116 l0 -74 79 0 78 0 7 62 c11
107 67 168 155 168 158 0 209 -203 71 -284 -33 -20 -51 -21 -310 -21 -259 0
-277 1 -310 21 -126 73 -99 251 43 284 32 8 217 13 217 6z m-300 -461 c34 -12
102 -15 350 -15 248 0 316 3 350 15 23 8 44 15 46 15 2 0 4 -134 4 -298 l0
-298 -36 -13 c-20 -7 -67 -42 -105 -78 l-70 -66 -182 6 c-188 6 -267 19 -358
58 l-49 21 0 334 c0 184 2 334 4 334 2 0 23 -7 46 -15z m-331 -278 c103 -156
121 -188 121 -222 l0 -39 -49 48 -49 49 -66 -49 c-36 -26 -66 -51 -66 -55 0
-4 33 -41 73 -82 111 -114 220 -181 377 -233 79 -26 99 -28 293 -32 l207 -4 0
-159 0 -159 -147 0 c-82 0 -187 4 -235 10 -284 29 -521 217 -614 485 -46 133
-45 370 2 545 19 69 22 80 27 80 2 0 59 -82 126 -183z m1265 -471 c36 -15 56
-54 56 -112 l0 -34 74 0 c97 0 134 -14 152 -56 17 -40 18 -158 3 -204 -20 -55
-47 -60 -314 -60 l-235 0 0 178 0 178 58 56 c31 31 66 58 77 61 41 10 97 7
129 -7z m-526 -626 l332 0 0 -24 c0 -33 -39 -86 -80 -110 -32 -19 -54 -21
-265 -24 -126 -2 -253 -1 -282 3 -87 11 -142 62 -157 146 l-6 36 62 -13 c45
-10 160 -14 396 -14z m662 -80 l0 -80 -95 0 c-52 0 -95 2 -95 4 0 2 7 23 15
46 8 23 15 58 15 76 l0 34 80 0 80 0 0 -80z"/>
</g>
</svg>
